<svg xmlns="http://www.w3.org/2000/svg" version="1.1" transform="rotate(0) scale(1, 1)" viewBox="46.53 233.64 1408 533.36">
<path d="M0 0 C0.75004193 -0.00085442 1.50008386 -0.00170885 2.27285433 -0.00258917 C4.76318604 -0.0042243 7.25344901 0.00124491 9.74377441 0.00672913 C11.53803506 0.00701145 13.33229582 0.00685238 15.1265564 0.00628662 C19.98130992 0.00600041 24.8360386 0.01186871 29.69078636 0.01886058 C34.7703374 0.0251234 39.84988905 0.02570023 44.92944336 0.02688599 C54.54107594 0.02999067 64.15269711 0.03819242 73.76432467 0.04823548 C84.70988684 0.05942341 95.65544957 0.06491382 106.60101604 0.06993091 C129.11019849 0.08037576 151.61936529 0.09871051 174.12854004 0.12025452 C174.12854004 12.99025452 174.12854004 25.86025452 174.12854004 39.12025452 C166.87115845 39.14998352 166.87115845 39.14998352 159.46716309 39.18031311 C143.42982596 39.24740648 127.39255168 39.3249466 111.35528851 39.4077816 C101.63787569 39.45772137 91.92047052 39.504165 82.20300293 39.54212952 C73.72482211 39.57526149 65.24670418 39.6152065 56.76859313 39.66304457 C52.28718089 39.68810083 47.80580923 39.70994135 43.32434654 39.72359848 C-2.33174099 38.67383641 -2.33174099 38.67383641 -41.51989746 59.52650452 C-56.52608112 76.07817553 -58.56831198 96.95032494 -58.00769043 118.3653717 C-57.32349463 132.20133126 -52.08805165 145.07644848 -43.87145996 156.12025452 C-42.75770996 157.66712952 -42.75770996 157.66712952 -41.62145996 159.24525452 C-29.07577847 172.36119425 -10.71395151 177.93786588 7.05747986 178.51898193 C9.44620554 178.54487852 11.83513466 178.55546452 14.22399902 178.55262756 C15.54292145 178.56281921 16.86184387 178.57301086 18.22073364 178.58351135 C21.78380434 178.610722 25.34671561 178.62031597 28.90987659 178.62636542 C32.65348616 178.63584437 36.3969809 178.66205413 40.14051819 178.68637085 C47.20548095 178.72978079 54.27042111 178.75848341 61.33547598 178.78169423 C70.89940197 178.81398351 80.46319337 178.86941397 90.02701664 178.92343998 C105.06081734 179.00776492 120.09456697 179.06153597 135.12854004 179.12025452 C135.12854004 155.69025452 135.12854004 132.26025452 135.12854004 108.12025452 C147.99854004 108.12025452 160.86854004 108.12025452 174.12854004 108.12025452 C174.12854004 144.75025452 174.12854004 181.38025452 174.12854004 219.12025452 C130.87890621 219.24116362 130.87890621 219.24116362 112.64025879 219.26673889 C100.08797493 219.28448267 87.53575185 219.30524765 74.98352051 219.34657288 C65.83844217 219.37666627 56.69341352 219.39587437 47.54828703 219.40252 C42.71515658 219.40639882 37.88216819 219.41538211 33.04908371 219.43744469 C-6.22056987 219.60957019 -43.94379247 218.04700858 -73.87927246 189.22962952 C-85.14635724 177.86822915 -92.0977186 163.66645158 -96.68395996 148.49525452 C-96.87901123 147.8516095 -97.0740625 147.20796448 -97.27502441 146.54481506 C-100.680722 134.46187477 -101.24641822 122.39217577 -101.18395996 109.93275452 C-101.18180481 109.15956879 -101.17964966 108.38638306 -101.1774292 107.58976746 C-101.12655599 96.21989915 -100.8690164 85.1574528 -97.87145996 74.12025452 C-97.5814209 73.02753235 -97.5814209 73.02753235 -97.28552246 71.91273499 C-92.54495901 54.70990325 -84.63368989 40.5734276 -71.87145996 28.12025452 C-71.06966309 27.3094342 -70.26786621 26.49861389 -69.44177246 25.66322327 C-51.60514168 8.49912119 -24.43805665 -0.1039413 0 0 Z " fill="#222f4d" transform="translate(561.8714599609375,233.87974548339844)"/>
<path d="M0 0 C23.28859877 -0.06789577 46.57711657 -0.12308551 69.86578941 -0.15543652 C80.68074479 -0.17086137 91.49563399 -0.19186645 102.31054688 -0.22631836 C111.74417914 -0.25635557 121.17776345 -0.27560679 130.61144221 -0.28226548 C135.5998209 -0.28615363 140.58806248 -0.29519842 145.57639694 -0.31719017 C150.28611507 -0.3377824 154.99564159 -0.34378864 159.70540047 -0.33932304 C161.42006159 -0.3401382 163.13473014 -0.34596687 164.84935188 -0.35761642 C180.18398297 -0.45655941 195.17926386 1.09851036 209.75 6.1875 C211.06556885 6.63923584 211.06556885 6.63923584 212.40771484 7.10009766 C235.13776397 15.21588817 253.18584029 31.46246612 264 53 C278.67520741 84.17592527 279.01159133 123.65934714 268 156 C259.39379229 178.80306216 242.97051415 197.60094324 220.82421875 208.0390625 C200.69905984 216.96634691 179.83324195 219.32827215 158.02734375 219.22705078 C156.29101569 219.22648498 154.55468716 219.22680652 152.81835938 219.22793579 C148.15825527 219.22850371 143.49825659 219.21684146 138.83817673 219.20278788 C133.94819439 219.19018583 129.05820896 219.18910262 124.16821289 219.18673706 C114.93223845 219.18054989 105.69631203 219.16417692 96.46035862 219.14403808 C83.9629079 219.11738593 71.46544382 219.10668408 58.9679718 219.09503365 C39.31194532 219.07629399 19.6560201 219.03643002 0 219 C0 182.37 0 145.74 0 108 C12.54 108 25.08 108 38 108 C38 131.43 38 154.86 38 179 C61.83016544 178.90926429 61.83016544 178.90926429 85.66015625 178.79101562 C95.38621294 178.73665098 105.11221828 178.68523302 114.83837891 178.65356445 C121.92376052 178.6304803 129.00900586 178.59696761 136.09427917 178.55129844 C139.84058406 178.52750555 143.58675517 178.50868611 147.3331337 178.50238609 C150.87087752 178.49627134 154.40827967 178.47604641 157.94589615 178.44572449 C159.83968356 178.4329568 161.73355123 178.43449658 163.62738037 178.4367218 C182.33908606 178.23509228 200.56963071 172.61802965 214.6875 159.9375 C227.99263677 145.64087467 232.45345304 125.28024918 231.97851562 106.27661133 C231.0545923 85.95683529 224.94977057 69.19800486 209.9140625 55.03515625 C192.11362712 39.91471207 167.73926028 39.88001217 145.65307617 39.79467773 C144.0551174 39.78507387 142.45716104 39.77506243 140.85920715 39.76467896 C136.56260891 39.7378951 132.26599999 39.71674384 127.96936584 39.69667697 C123.46371425 39.67465168 118.95809459 39.64734475 114.45246887 39.62062073 C105.93892083 39.57091561 97.42535485 39.52589549 88.91177207 39.48259836 C79.21151313 39.43303512 69.51128625 39.37818843 59.8110584 39.32291877 C39.8740675 39.2094397 19.93704681 39.10322509 0 39 C0 26.13 0 13.26 0 0 Z " fill="#222f4d" transform="translate(772,234)"/>
<path d="M0 0 C21.10939209 -0.5961124 40.7987252 5.13655454 56.34765625 19.78515625 C65.14270473 28.65436197 70.59944129 38.73336651 72.6640625 51.12109375 C64.7440625 51.12109375 56.8240625 51.12109375 48.6640625 51.12109375 C47.3440625 47.82109375 46.0240625 44.52109375 44.6640625 41.12109375 C38.72418586 30.91100729 29.4577608 24.90743258 18.21875 21.83984375 C1.39248537 18.43761002 -15.28285147 20.17042815 -30.31640625 28.83984375 C-43.12633406 37.46225033 -50.64871883 51.10482303 -54.2109375 65.93359375 C-57.96300242 87.46329961 -56.41530415 110.91959131 -43.9609375 129.43359375 C-42.77459963 131.01285882 -41.56754279 132.57687093 -40.3359375 134.12109375 C-39.86027344 134.74628906 -39.38460937 135.37148438 -38.89453125 136.015625 C-32.58019094 143.319157 -20.46303127 149.42594254 -10.92578125 150.9453125 C6.04734217 152.09733445 21.80180892 150.98697832 35.7890625 140.18359375 C46.56713119 130.14733546 51.28753405 114.63431503 53.26953125 100.51953125 C53.6640625 98.12109375 53.6640625 98.12109375 54.6640625 96.12109375 C39.1540625 96.12109375 23.6440625 96.12109375 7.6640625 96.12109375 C7.6640625 90.51109375 7.6640625 84.90109375 7.6640625 79.12109375 C30.1040625 79.12109375 52.5440625 79.12109375 75.6640625 79.12109375 C75.6640625 108.49109375 75.6640625 137.86109375 75.6640625 168.12109375 C69.3940625 168.12109375 63.1240625 168.12109375 56.6640625 168.12109375 C55.5390625 161.37109375 55.5390625 161.37109375 55.34765625 158.03515625 C55.28481445 156.98134766 55.28481445 156.98134766 55.22070312 155.90625 C55.18138672 155.19339844 55.14207031 154.48054687 55.1015625 153.74609375 C55.05837891 153.01003906 55.01519531 152.27398438 54.97070312 151.515625 C54.86562451 149.71761307 54.76444157 147.91937417 54.6640625 146.12109375 C54.0040625 146.12109375 53.3440625 146.12109375 52.6640625 146.12109375 C51.4025269 147.61953744 50.20464707 149.17185801 49.0390625 150.74609375 C39.27594037 163.19583043 25.61767372 168.76860529 10.1640625 170.80859375 C-10.46553928 172.58636913 -32.02791286 168.98977836 -48.5078125 155.64453125 C-64.84173281 141.64109162 -75.0992357 122.56258001 -77.3359375 101.12109375 C-79.09313766 74.0594423 -76.62161308 47.21418624 -58.0234375 25.99609375 C-56.47615916 24.35659352 -54.91402786 22.73095774 -53.3359375 21.12109375 C-52.67078125 20.41984375 -52.005625 19.71859375 -51.3203125 18.99609375 C-37.71019513 5.69765845 -18.44045248 0.95594319 0 0 Z " fill="#222f4d" transform="translate(124.3359375,547.87890625)"/>
<path d="M0 0 C10.28646873 8.24858341 14.25896291 19.76439137 15.8203125 32.47265625 C15.90471093 35.19498488 15.94737139 37.88994141 15.93383789 40.61108398 C15.93398392 41.39239182 15.93412994 42.17369965 15.9342804 42.97868347 C15.93358877 45.53790145 15.92583177 48.09704487 15.91796875 50.65625 C15.9161019 52.43986471 15.91467926 54.22347993 15.91368103 56.00709534 C15.90987685 60.68416783 15.90006463 65.3612089 15.88897705 70.03826904 C15.87871766 74.81782608 15.87417373 79.59738823 15.86914062 84.37695312 C15.85844035 93.74220348 15.84086069 103.10742232 15.8203125 112.47265625 C9.5503125 112.47265625 3.2803125 112.47265625 -3.1796875 112.47265625 C-3.40755208 109.18489583 -3.63541667 105.89713542 -3.86328125 102.609375 C-4.0664246 99.44674667 -4.0664246 99.44674667 -5.1796875 96.47265625 C-5.7365625 97.13652344 -6.2934375 97.80039062 -6.8671875 98.484375 C-15.32947289 108.27603968 -24.05875669 114.10935964 -37.1640625 115.34765625 C-50.90197656 116.19961991 -64.09385732 114.14852335 -75.1796875 105.47265625 C-82.89051274 98.20148332 -86.25979224 90.99819008 -86.65039062 80.44580078 C-86.78040704 69.19287995 -85.01061395 61.68530108 -77.14453125 53.3203125 C-65.90485527 42.75099493 -51.484531 40.2853071 -36.52734375 40.375 C-35.62721054 40.37641495 -34.72707733 40.3778299 -33.79966736 40.37928772 C-30.94713913 40.38484965 -28.09469169 40.39739498 -25.2421875 40.41015625 C-23.29882926 40.41517617 -21.35546979 40.41973822 -19.41210938 40.42382812 C-14.667938 40.43480659 -9.92382641 40.45204472 -5.1796875 40.47265625 C-5.60999546 37.91304952 -6.05316357 35.35679999 -6.50390625 32.80078125 C-6.68318665 31.72207764 -6.68318665 31.72207764 -6.86608887 30.62158203 C-8.22399145 23.04158358 -11.17220705 17.91623412 -17.1796875 13.03515625 C-25.81578939 8.53718651 -35.18606381 7.94527092 -44.61328125 10.34765625 C-51.22116392 12.85551684 -55.32034897 15.53521235 -59.1796875 21.47265625 C-60.1696875 24.44265625 -61.1596875 27.41265625 -62.1796875 30.47265625 C-69.4396875 30.47265625 -76.6996875 30.47265625 -84.1796875 30.47265625 C-82.66389701 18.80106948 -78.59425435 8.93679491 -69.1796875 1.47265625 C-49.54308928 -12.89050923 -20.06672712 -14.06109374 0 0 Z M-61.4296875 65.91015625 C-64.77433953 70.80768244 -65.68438985 74.51716854 -65.1796875 80.47265625 C-63.98970225 86.05476887 -61.72115143 89.74216614 -57.18359375 93.21875 C-50.08356773 97.66145634 -42.40630541 98.4297399 -34.1796875 97.47265625 C-24.35674291 94.96376564 -16.82208263 89.49079119 -11.49609375 80.9140625 C-9.33782954 76.91134698 -7.63031768 72.77991202 -6.1796875 68.47265625 C-5.87998047 67.58513672 -5.87998047 67.58513672 -5.57421875 66.6796875 C-5.18401728 64.4968773 -5.14089674 62.54821177 -5.1550293 60.3347168 C-5.1631665 59.06023682 -5.17130371 57.78575684 -5.1796875 56.47265625 C-10.08688133 56.39764035 -14.99373021 56.34365215 -19.90136719 56.30786133 C-21.56548895 56.29291701 -23.22957233 56.27255402 -24.89355469 56.24633789 C-44.92227561 55.78463465 -44.92227561 55.78463465 -61.4296875 65.91015625 Z " fill="#222f4d" transform="translate(630.1796875,603.52734375)"/>
<path d="M0 0 C12.34196214 10.5394103 18.54425921 23.88637632 20.30859375 39.92578125 C20.30859375 45.20578125 20.30859375 50.48578125 20.30859375 55.92578125 C-25.23140625 56.42078125 -25.23140625 56.42078125 -71.69140625 56.92578125 C-69.77786307 68.40704031 -67.30641884 78.70236014 -58.69140625 86.92578125 C-48.39217837 94.20202757 -38.44238707 96.55550979 -25.91015625 94.4609375 C-16.55798085 92.02186706 -10.8714947 86.97180853 -5.8203125 78.87890625 C-5.0713601 77.58314085 -4.36072496 76.26441867 -3.69140625 74.92578125 C2.90859375 74.92578125 9.50859375 74.92578125 16.30859375 74.92578125 C14.76832185 85.70768452 9.58410095 94.94974776 0.98828125 101.765625 C-1.52118597 103.58057607 -4.07198409 105.27422734 -6.69140625 106.92578125 C-7.305 107.32925781 -7.91859375 107.73273438 -8.55078125 108.1484375 C-21.89425132 115.91244774 -39.32687258 114.91717416 -53.75048828 111.45605469 C-65.81887883 108.15887931 -76.63126508 99.38271751 -83.19140625 88.80078125 C-84.05014899 87.18906467 -84.88549626 85.56455474 -85.69140625 83.92578125 C-86.06652344 83.24515625 -86.44164062 82.56453125 -86.828125 81.86328125 C-95.56868769 64.70708384 -94.37144214 42.36017766 -88.625 24.63671875 C-86.00117855 17.79573213 -82.55246329 12.37915196 -77.69140625 6.92578125 C-77.1190625 6.23742187 -76.54671875 5.5490625 -75.95703125 4.83984375 C-57.34398112 -15.92086601 -21.27340385 -16.39503258 0 0 Z M-63.375 18.73828125 C-68.46682322 25.03639675 -71.69140625 31.78726906 -71.69140625 39.92578125 C-48.26140625 39.92578125 -24.83140625 39.92578125 -0.69140625 39.92578125 C-1.76889706 29.15087315 -3.66493607 21.87755622 -11.66015625 14.4609375 C-27.52561031 2.47031549 -49.78762741 4.11057619 -63.375 18.73828125 Z " fill="#222f4d" transform="translate(368.69140625,605.07421875)"/>
<path d="M0 0 C8.03321426 7.52045591 12.58873683 18.83623819 13.49147415 29.72035408 C13.55536276 31.91459382 13.56050888 34.10011331 13.53955078 36.29516602 C13.53984283 37.11578018 13.54013489 37.93639435 13.54043579 38.78187561 C13.53905652 41.46016487 13.52356235 44.13816635 13.5078125 46.81640625 C13.50407737 48.68684233 13.50123276 50.55728037 13.49923706 52.42771912 C13.49163998 57.32509871 13.47202562 62.22235766 13.4498291 67.11968994 C13.42928567 72.12730274 13.42021725 77.13493524 13.41015625 82.14257812 C13.38877567 91.94927999 13.35362594 101.75586104 13.3125 111.5625 C6.7125 111.5625 0.1125 111.5625 -6.6875 111.5625 C-6.70208252 109.35860596 -6.71666504 107.15471191 -6.73168945 104.8840332 C-6.7823039 97.55578582 -6.84894406 90.22774496 -6.92321491 82.89970112 C-6.9677093 78.46204296 -7.00700988 74.02447221 -7.03393555 69.58666992 C-7.06017949 65.29411381 -7.1007261 61.00189791 -7.15068626 56.70955467 C-7.16721381 55.08197489 -7.17881504 53.45433646 -7.18511391 51.82668495 C-7.08876523 32.37356387 -7.08876523 32.37356387 -15.6875 15.5625 C-22.52367644 9.94963934 -30.02643979 8.07351261 -38.7734375 8.2421875 C-45.99933441 9.03645499 -52.29073924 11.68800641 -57.6875 16.5625 C-58.3475 16.5625 -59.0075 16.5625 -59.6875 16.5625 C-59.955625 17.11292969 -60.22375 17.66335938 -60.5 18.23046875 C-61.33020399 19.86083645 -62.20978846 21.46656998 -63.125 23.05078125 C-70.04378166 35.5564791 -69.98136626 49.03483359 -70.1015625 63.02734375 C-70.12034214 64.44081159 -70.13992015 65.85426903 -70.1602478 67.26771545 C-70.21085944 70.93189256 -70.25085725 74.59610575 -70.28839111 78.26043701 C-70.32888451 82.02201734 -70.37976618 85.78345695 -70.4296875 89.54492188 C-70.52560253 96.88402381 -70.60930381 104.22318396 -70.6875 111.5625 C-77.2875 111.5625 -83.8875 111.5625 -90.6875 111.5625 C-90.6875 72.2925 -90.6875 33.0225 -90.6875 -7.4375 C-84.4175 -7.4375 -78.1475 -7.4375 -71.6875 -7.4375 C-71.1925 0.9775 -71.1925 0.9775 -70.6875 9.5625 C-68.7384375 7.273125 -68.7384375 7.273125 -66.75 4.9375 C-49.49223187 -14.15677554 -20.18980663 -15.95370507 0 0 Z " fill="#222f4d" transform="translate(504.6875,604.4375)"/>
<path d="M0 0 C5.94 0 11.88 0 18 0 C18 9.24 18 18.48 18 28 C29.55 28 41.1 28 53 28 C53 33.94 53 39.88 53 46 C41.45 46 29.9 46 18 46 C18.12011909 57.6885994 18.12011909 57.6885994 18.2578125 69.37695312 C18.31793123 74.14977966 18.37606826 78.92256849 18.421875 83.69555664 C18.45896925 87.54713925 18.50539175 91.3985104 18.55806351 95.24991035 C18.5764801 96.71333641 18.59163412 98.17680757 18.60334396 99.64030266 C18.2257974 112.662097 18.2257974 112.662097 22.75 124.4375 C28.45571353 128.39980106 34.67749656 128.39569888 41.375 128.625 C42.76525391 128.68300781 42.76525391 128.68300781 44.18359375 128.7421875 C46.45542296 128.83587118 48.72768328 128.91899809 51 129 C51 134.94 51 140.88 51 147 C47.08289945 147.08185891 43.16755414 147.14091527 39.25 147.1875 C38.15816406 147.21263672 37.06632813 147.23777344 35.94140625 147.26367188 C25.33864158 147.35777925 14.35678321 146.11298292 6 139 C-1.56291 131.43709 -2.31351634 120.78957426 -2.34822559 110.62670422 C-2.33966803 108.25747849 -2.31660528 105.88865044 -2.29296875 103.51953125 C-2.28736169 101.85373825 -2.28309685 100.18794025 -2.28010559 98.5221405 C-2.26874409 94.17379691 -2.23935367 89.82576208 -2.20599365 85.47753906 C-2.17510343 81.02608413 -2.16156007 76.57457848 -2.14648438 72.12304688 C-2.114474 63.41520828 -2.06177905 54.70767832 -2 46 C-8.93 46 -15.86 46 -23 46 C-23 40.06 -23 34.12 -23 28 C-16.07 28 -9.14 28 -2 28 C-1.71286011 22.15261426 -1.71286011 22.15261426 -1.43188477 16.30493164 C-1.15370283 10.83715696 -0.65275455 5.43596438 0 0 Z " fill="#222f4d" transform="translate(776,569)"/>
<path d="M0 0 C6.93 0 13.86 0 21 0 C21 55.77 21 111.54 21 169 C14.07 169 7.14 169 0 169 C0 113.23 0 57.46 0 0 Z " fill="#222f4d" transform="translate(229,547)"/>
<path d="M0 0 C18.02108369 -0.50222692 35.68006547 3.8834395 49.6484375 15.59765625 C59.00311394 24.46670741 65.12168658 34.73548342 68.6953125 47.12109375 C68.6953125 47.78109375 68.6953125 48.44109375 68.6953125 49.12109375 C66.3853125 49.12109375 64.0753125 49.12109375 61.6953125 49.12109375 C61.27572266 47.88746094 61.27572266 47.88746094 60.84765625 46.62890625 C57.25575535 36.62702142 52.66617148 28.29486683 44.6953125 21.12109375 C44.21964844 20.6415625 43.74398437 20.16203125 43.25390625 19.66796875 C32.29973599 9.21531471 15.28523762 6.61150757 0.68554688 6.76757812 C-18.81378394 7.43211228 -35.95427483 14.61002351 -49.40234375 28.828125 C-65.15653705 47.81726559 -68.71593087 72.08541319 -67.02734375 96.05859375 C-65.16367043 115.91509745 -57.8441214 136.14469853 -42.515625 149.5625 C-26.21068948 162.34944556 -7.89539845 166.0657283 12.39453125 163.6875 C26.95571573 161.06224725 39.9285469 154.13132106 48.875 142.21875 C58.81439611 127.04710575 63.20574861 109.90306268 64.484375 91.94140625 C64.6953125 90.12109375 64.6953125 90.12109375 65.6953125 88.12109375 C46.8853125 88.12109375 28.0753125 88.12109375 8.6953125 88.12109375 C8.6953125 86.47109375 8.6953125 84.82109375 8.6953125 83.12109375 C29.4853125 83.12109375 50.2753125 83.12109375 71.6953125 83.12109375 C71.6953125 111.17109375 71.6953125 139.22109375 71.6953125 168.12109375 C70.0453125 168.12109375 68.3953125 168.12109375 66.6953125 168.12109375 C66.63996338 167.11731689 66.58461426 166.11354004 66.52758789 165.0793457 C66.3205838 161.34248436 66.10886707 157.60590216 65.89575195 153.86938477 C65.80430334 152.25454785 65.71411963 150.63963878 65.62524414 149.0246582 C65.49700964 146.69852733 65.3641745 144.37269702 65.23046875 142.046875 C65.19188248 141.32897293 65.1532962 140.61107086 65.11354065 139.87141418 C64.8982745 136.20700779 64.52791901 132.69855689 63.6953125 129.12109375 C63.31761719 129.9925 62.93992187 130.86390625 62.55078125 131.76171875 C58.22458417 141.12332555 53.05382285 147.93830902 45.6953125 155.12109375 C45.09976563 155.73726562 44.50421875 156.3534375 43.890625 156.98828125 C33.87134318 166.60878568 18.20851231 170.43142486 4.6953125 171.12109375 C3.91800781 171.16234375 3.14070312 171.20359375 2.33984375 171.24609375 C-17.81789695 171.7722338 -36.30238636 165.19724221 -51.11328125 151.47265625 C-70.15330223 131.04111859 -75.26761845 104.48980771 -74.40966797 77.43505859 C-73.38561807 54.86309369 -64.93866287 33.57342059 -48.3046875 18.12109375 C-34.11138725 6.22726673 -18.31477199 0.96230158 0 0 Z " fill="#222f4d" transform="translate(922.3046875,547.87890625)"/>
<path d="M0 0 C0 7.26 0 14.52 0 22 C-2.3925 22.0825 -4.785 22.165 -7.25 22.25 C-16.69429955 22.74361124 -25.85301387 24.32947961 -33 31 C-33.66 31 -34.32 31 -35 31 C-35.433125 31.87398437 -35.433125 31.87398437 -35.875 32.765625 C-36.56641744 34.13885685 -37.27176287 35.5053091 -38 36.859375 C-38.33 37.48328125 -38.66 38.1071875 -39 38.75 C-39.33 39.36359375 -39.66 39.9771875 -40 40.609375 C-43.62342887 49.27163464 -43.34477239 58.0862104 -43.4140625 67.3125 C-43.43279674 68.89291367 -43.45237179 70.47331758 -43.4727478 72.05371094 C-43.52383701 76.18982151 -43.56358611 80.32596444 -43.60089111 84.46221924 C-43.64107722 88.69234058 -43.69210254 92.92233008 -43.7421875 97.15234375 C-43.83867162 105.43481192 -43.92216017 113.7173356 -44 122 C-50.93 122 -57.86 122 -65 122 C-65 82.73 -65 43.46 -65 3 C-58.73 3 -52.46 3 -46 3 C-45.34 9.27 -44.68 15.54 -44 22 C-43.175 20.824375 -42.35 19.64875 -41.5 18.4375 C-33.22272223 7.54229251 -23.09500781 2.53078427 -9.66796875 0.26171875 C-6.45953225 -0.05301807 -3.22383685 0 0 0 Z " fill="#222f4d" transform="translate(740,594)"/>
<path d="M0 0 C11.71419195 9.71725208 18.18307028 23.16609075 20.37890625 38.06640625 C21.23855694 52.25597846 21.69772171 66.68626112 16.37890625 80.06640625 C15.96640625 81.11441406 15.55390625 82.16242188 15.12890625 83.2421875 C9.18872999 96.52320659 -0.80365228 105.84572822 -14.32421875 111.12109375 C-28.58382918 115.71391306 -44.4397405 115.2981216 -58.24609375 109.32421875 C-62.47404046 107.08507592 -66.04126819 104.21878995 -69.62109375 101.06640625 C-70.25015625 100.51984375 -70.87921875 99.97328125 -71.52734375 99.41015625 C-76.95775187 94.3608294 -81.26723738 88.12797535 -83.62109375 81.06640625 C-83.95109375 107.79640625 -84.28109375 134.52640625 -84.62109375 162.06640625 C-86.60109375 162.06640625 -88.58109375 162.06640625 -90.62109375 162.06640625 C-90.62109375 105.96640625 -90.62109375 49.86640625 -90.62109375 -7.93359375 C-88.97109375 -7.93359375 -87.32109375 -7.93359375 -85.62109375 -7.93359375 C-85.5960376 -7.13139404 -85.57098145 -6.32919434 -85.54516602 -5.50268555 C-85.42927332 -1.87532301 -85.30651624 1.75177542 -85.18359375 5.37890625 C-85.14427734 6.64154297 -85.10496094 7.90417969 -85.06445312 9.20507812 C-85.02255859 10.41357422 -84.98066406 11.62207031 -84.9375 12.8671875 C-84.90084229 13.98262939 -84.86418457 15.09807129 -84.82641602 16.24731445 C-84.73178166 19.14514196 -84.73178166 19.14514196 -83.62109375 22.06640625 C-83.18539063 21.28136719 -82.7496875 20.49632812 -82.30078125 19.6875 C-74.33655877 5.63805991 -64.82314298 -4.04697453 -49.15625 -9.27734375 C-31.88882562 -13.7471855 -14.29945244 -10.54877639 0 0 Z M-71.62109375 13.06640625 C-81.93734455 26.73670903 -84.91381866 44.42794273 -82.99609375 61.12890625 C-80.30983913 76.87284887 -73.6545349 90.7516775 -60.71875 100.5 C-49.88724927 107.72814999 -37.20387165 109.46241587 -24.45703125 107.60546875 C-17.30666619 106.03497513 -11.58126112 103.28213439 -5.62109375 99.06640625 C-4.98429687 98.62554688 -4.3475 98.1846875 -3.69140625 97.73046875 C6.78492347 89.67533523 12.3325739 75.79750806 14.37890625 63.06640625 C15.86699121 43.73360004 13.64518015 25.18398703 1.12890625 9.62890625 C-8.30616817 -0.16260432 -20.66524151 -5.0044462 -34.12109375 -5.43359375 C-49.29891866 -4.94902879 -61.93260694 1.37340493 -71.62109375 13.06640625 Z " fill="#222f4d" transform="translate(1433.62109375,604.93359375)"/>
<path d="M0 0 C12.60829177 10.63052052 19.13733824 25.32856974 20.99609375 41.5390625 C22.55729655 60.72884686 19.60651276 78.21043406 8.10546875 93.97265625 C-3.11844195 107.14682094 -17.04609119 112.8180417 -34.05859375 114.18359375 C-50.29273173 114.65244972 -64.08567757 109.03752881 -75.80859375 98.0390625 C-89.30309404 84.10508614 -92.23142475 66.98595823 -92.14477539 48.38110352 C-91.75341509 31.2677517 -87.10385365 16.9096689 -75.140625 4.28515625 C-54.87889308 -14.89638641 -22.50231963 -16.56196552 0 0 Z M-72.72265625 10.99609375 C-85.01262466 26.49897895 -86.71937083 42.88870607 -85.72265625 61.99609375 C-83.992893 76.42056019 -77.40931905 88.24076493 -66.72265625 97.99609375 C-55.6320094 106.31832492 -43.36830106 108.82496306 -29.72265625 107.99609375 C-16.21394782 106.00604682 -4.10279005 99.30921858 4.25 88.42578125 C14.94871181 72.47993052 16.88722737 54.4826826 13.74609375 35.84375 C10.72138648 21.85447889 2.85862885 10.21527715 -8.97265625 2.12109375 C-29.78658096 -10.10708701 -56.13595385 -6.86650883 -72.72265625 10.99609375 Z " fill="#222f4d" transform="translate(1175.72265625,605.00390625)"/>
<path d="M0 0 C1.98 0 3.96 0 6 0 C6.00586624 0.97115753 6.01173248 1.94231506 6.01777649 2.94290161 C6.07529961 12.15100377 6.14821208 21.35887644 6.23571491 30.56674385 C6.28020596 35.29919821 6.31950729 40.03157069 6.34643555 44.76416016 C6.37268278 49.34199891 6.41323175 53.91951883 6.46318626 58.49715805 C6.4797116 60.23276643 6.49131417 61.96842976 6.49761391 63.70410538 C6.55494968 78.06543454 6.74984844 94.25173908 16.52734375 105.8046875 C24.67627482 113.51261759 35.63413434 115.38757677 46.44921875 115.27734375 C58.22171945 114.35781949 67.10260939 109.80548773 74.6875 100.9375 C88.30196238 82.25646829 85.38158251 56.21727071 85.60089111 34.23760986 C85.64144451 30.36861087 85.69229773 26.49974725 85.7421875 22.63085938 C85.83799261 15.0873337 85.92269051 7.54374037 86 0 C87.65 0 89.3 0 91 0 C91 39.27 91 78.54 91 119 C89.35 119 87.7 119 86 119 C85.93941406 117.73542969 85.87882812 116.47085938 85.81640625 115.16796875 C85.73199096 113.50780129 85.64734345 111.84764563 85.5625 110.1875 C85.52318359 109.35412109 85.48386719 108.52074219 85.44335938 107.66210938 C85.40146484 106.85966797 85.35957031 106.05722656 85.31640625 105.23046875 C85.27974854 104.49207764 85.24309082 103.75368652 85.20532227 102.99291992 C85.05157859 100.792505 85.05157859 100.792505 84 98 C83.5875 98.64066406 83.175 99.28132812 82.75 99.94140625 C75.61361914 110.63004812 67.50358902 117.54156048 55 121 C42.64071878 123.33193985 28.895945 122.29026491 18.0234375 115.5 C8.57613628 108.49659524 3.03330688 99.58148703 1 88 C-0.37903568 78.70983093 -0.12746491 69.32567189 -0.09765625 59.9609375 C-0.09578791 58.22645102 -0.09436597 56.49196401 -0.09336853 54.75747681 C-0.08957612 50.22347521 -0.07977432 45.68950636 -0.06866455 41.15551758 C-0.05837948 36.51644331 -0.0538558 31.87736367 -0.04882812 27.23828125 C-0.03814868 18.15883989 -0.02111226 9.07942268 0 0 Z " fill="#222f4d" transform="translate(1220,597)"/>
<path d="M0 0 C0 1.65 0 3.3 0 5 C-1.19496094 5.17015625 -2.38992188 5.3403125 -3.62109375 5.515625 C-15.77911433 7.23975698 -15.77911433 7.23975698 -27 12 C-28.03125 12.5775 -29.0625 13.155 -30.125 13.75 C-39.70946531 21.2508859 -44.34614144 30.97544664 -46 43 C-46.11277461 45.65201424 -46.18403579 48.28078875 -46.20532227 50.93310547 C-46.21522186 51.7045137 -46.22512146 52.47592194 -46.23532104 53.27070618 C-46.26673314 55.80283614 -46.29161261 58.33498482 -46.31640625 60.8671875 C-46.33699333 62.62981637 -46.35799025 64.39244049 -46.37937927 66.15505981 C-46.43441883 70.78112941 -46.48390757 75.40724221 -46.53222656 80.03338623 C-46.58257433 84.7592755 -46.63819092 89.48510248 -46.69335938 94.2109375 C-46.80071918 103.47390504 -46.90221287 112.7369268 -47 122 C-48.98 122 -50.96 122 -53 122 C-53 82.73 -53 43.46 -53 3 C-51.35 3 -49.7 3 -48 3 C-47.34 9.6 -46.68 16.2 -46 23 C-44.7625 20.9890625 -44.7625 20.9890625 -43.5 18.9375 C-36.73443148 8.83679206 -28.31949488 3.6857294 -16.5625 1.25 C-10.91985423 0.20611053 -5.72263607 -0.30119137 0 0 Z " fill="#222f4d" transform="translate(1076,594)"/>
</svg>